<svg width="64" height="64" viewBox="0 0 64 64" fill="none" xmlns="http://www.w3.org/2000/svg">
<rect x="4" y="4" width="56" height="56" rx="12" fill="#0A0A0A"/>
<path d="M12.184 41L10.096 25.352H13.768L14.248 33.68C14.248 34.128 14.256 34.568 14.272 35C14.288 35.416 14.296 35.84 14.296 36.272C14.312 36.688 14.32 37.136 14.32 37.616H14.416C14.48 37.136 14.552 36.688 14.632 36.272C14.728 35.84 14.824 35.408 14.92 34.976C15.016 34.544 15.104 34.112 15.184 33.68L16.24 29.312H18.496L19.48 33.68C19.576 34.112 19.664 34.536 19.744 34.952C19.824 35.368 19.912 35.8 20.008 36.248C20.104 36.68 20.184 37.136 20.248 37.616H20.344C20.36 37.136 20.368 36.68 20.368 36.248C20.384 35.8 20.392 35.368 20.392 34.952C20.408 34.536 20.424 34.112 20.44 33.68L20.872 25.352H24.304L22.384 41H18.592L17.68 36.152C17.584 35.656 17.496 35.152 17.416 34.64C17.336 34.128 17.28 33.64 17.248 33.176H17.176C17.128 33.64 17.072 34.128 17.008 34.64C16.944 35.152 16.864 35.656 16.768 36.152L15.856 41H12.184ZM26.1906 41V25.352H31.7346C32.8706 25.352 33.8946 25.512 34.8066 25.832C35.7346 26.136 36.4706 26.656 37.0146 27.392C37.5746 28.128 37.8546 29.128 37.8546 30.392C37.8546 31.608 37.5746 32.608 37.0146 33.392C36.4546 34.176 35.7106 34.76 34.7826 35.144C33.8546 35.512 32.8386 35.696 31.7346 35.696H29.7186V41H26.1906ZM29.7186 32.888H31.5186C32.4946 32.888 33.2146 32.672 33.6786 32.24C34.1586 31.808 34.3986 31.192 34.3986 30.392C34.3986 29.56 34.1506 28.984 33.6546 28.664C33.1746 28.328 32.4626 28.16 31.5186 28.16H29.7186V32.888ZM40.1733 41V25.352H43.8693L45.4053 30.896L45.9333 33.056H46.0293L46.5573 30.896L48.0933 25.352H51.7893V41H48.8133V36.152C48.8133 35.72 48.8293 35.184 48.8613 34.544C48.8933 33.888 48.9333 33.208 48.9813 32.504C49.0293 31.8 49.0773 31.128 49.1253 30.488C49.1893 29.848 49.2373 29.32 49.2693 28.904H49.1973L47.9973 33.08L46.7973 36.848H45.0693L43.8453 33.08L42.7173 28.904H42.6453C42.6773 29.32 42.7173 29.848 42.7653 30.488C42.8293 31.128 42.8853 31.8 42.9333 32.504C42.9813 33.208 43.0213 33.888 43.0533 34.544C43.0853 35.184 43.1013 35.72 43.1013 36.152V41H40.1733Z" fill="#F5F5F5"/>
</svg>
